<svg width="69" height="65" viewBox="0 0 69 65" fill="none" xmlns="http://www.w3.org/2000/svg">
<g clip-path="url(#clip0_2691_4294)">
<path fill-rule="evenodd" clip-rule="evenodd" d="M22.8867 8.40982C23.1971 8.40982 23.5558 8.43542 23.8351 8.46727C23.6268 8.26713 23.2489 8.02655 22.6849 7.96022C22.6854 7.96516 22.6849 7.96895 22.6858 7.97404C22.7082 8.13215 22.7866 8.31353 22.887 8.40982H22.8867ZM20.2953 11.8571C20.5014 11.8571 20.6307 11.8405 20.7568 11.8247C20.9085 11.8047 21.0567 11.7861 21.3168 11.7931C21.6096 11.7999 21.8575 11.6636 22.0819 11.54C22.2905 11.4244 22.4822 11.3189 22.7009 11.3189C22.9274 11.3179 23.098 11.3465 23.2522 11.4068L23.2518 11.4078C23.4064 11.4681 23.5388 11.5591 23.689 11.6834C24.0017 11.9433 24.1862 12.1867 24.2927 12.49C24.3956 12.7844 24.4207 13.1292 24.4175 13.5986C24.409 14.8063 24.2723 15.4546 24.0969 15.8046C23.8961 16.206 23.6445 16.2552 23.4525 16.2681C23.4486 16.2681 22.0047 16.3758 21.3168 16.2769C21.1969 16.26 21.0783 16.2354 20.9517 16.2085L20.6487 16.1503C20.4451 16.1145 20.3152 16.0849 20.1894 16.0366C20.0652 15.9881 19.9508 15.9221 19.7737 15.8111H19.7732C19.7238 15.7816 19.6545 15.7301 19.5795 15.6777C19.4534 15.589 19.3075 15.4911 19.2333 15.4911C19.2164 15.4911 19.215 15.4955 19.215 15.5004C19.215 15.5025 19.2144 15.506 19.2144 15.5077C19.2319 15.5324 19.3162 15.5845 19.3123 15.658C19.3084 15.7806 19.3028 15.9319 19.2842 16.0948C19.206 16.7726 18.9545 17.2199 18.7856 17.462L19.2025 17.419C19.8876 17.346 20.5308 17.2776 20.9049 17.2767C20.9933 17.2757 21.1223 17.2866 21.2761 17.3065C21.3799 17.3193 21.4896 17.3361 21.6001 17.3548L21.9638 17.4232C22.4653 17.5241 23.0067 17.6697 23.3398 17.8255C23.4944 17.8151 23.9983 17.7906 24.536 17.7652L25.4902 17.7186C25.6201 17.6444 25.7505 17.5525 25.8778 17.4391C26.0131 17.3183 26.1447 17.1781 26.2681 17.0231C26.9085 16.2187 27.3482 15.0168 27.121 14.0276L27.4003 13.9643C27.6483 15.0414 27.1783 16.339 26.4927 17.2009C26.3578 17.3697 26.2156 17.523 26.0688 17.6519C25.9881 17.7236 25.903 17.772 25.8198 17.8308L25.9996 17.8919C26.585 18.0836 27.5482 18.3999 28.0316 19.4642C28.1847 19.5522 28.7015 19.8919 28.8058 20.3592C28.8687 20.3877 28.9302 20.4037 28.993 20.4348C29.3424 20.6072 29.6858 20.8165 30.0148 21.0447C30.2639 19.4116 28.6049 18.2815 28.5996 18.2776L28.1855 17.996L28.6855 18.0168C29.3537 18.0433 29.7756 17.98 30.081 17.8616C30.3789 17.7449 30.5756 17.5681 30.785 17.3671H30.7855C31.2291 16.9467 31.3873 16.4172 31.4412 16.1563C29.3338 16.1938 29.3516 14.7084 29.3516 14.7047V14.5455L29.5097 14.5624C31.05 14.7205 31.6295 13.646 31.7977 13.2184C31.4774 13.1969 31.2067 13.1422 30.9777 13.0555C30.6941 12.9479 30.4727 12.7908 30.2993 12.5813C30.0026 12.2226 29.9753 11.5288 29.9485 10.8479C29.9407 10.6344 29.9325 10.422 29.9146 10.2123L29.9136 10.2053L30.0561 10.1929L30.0537 10.0504L30.078 10.0494H30.0785C30.1687 10.0479 30.2618 10.0508 30.3552 10.0548C30.3892 9.96749 30.4337 9.89142 30.4905 9.81127C30.6432 9.59673 30.8588 9.29346 30.8561 8.21811C30.8547 7.46655 30.7085 6.99047 30.6317 6.78771C30.0778 6.99716 29.6959 7.20225 29.4473 7.45898C29.1866 7.72996 29.0589 8.06887 28.9972 8.54509C28.9332 9.03818 28.9923 9.74698 28.9923 9.74887L29.0077 9.90509L28.8506 9.90611C28.5383 9.90611 28.3023 9.89302 28.0851 9.81302C27.8628 9.73113 27.67 9.58378 27.4547 9.31891L27.6764 9.13811C27.8564 9.35964 28.0109 9.47993 28.1855 9.54436C28.3297 9.59673 28.4938 9.61462 28.6989 9.61855C28.6849 9.37244 28.6666 8.884 28.7155 8.50873C28.7849 7.97055 28.934 7.58073 29.242 7.26073C29.4675 7.02756 29.7754 6.836 30.1968 6.65273C29.9383 6.61636 29.5932 6.58218 29.1587 6.58247C28.6879 6.58349 28.33 6.67149 28.0508 6.81869C27.7744 6.96415 27.5718 7.16851 27.4089 7.40487C27.2627 7.61724 27.1471 7.95236 27.1543 8.28342C27.1561 8.34631 27.1622 8.40901 27.1727 8.47106C27.1833 8.53138 27.1994 8.59062 27.2207 8.64807L27.1919 8.65898L26.9533 8.75091L26.9523 8.74902L26.9513 8.74698C26.9242 8.6735 26.9038 8.59769 26.8905 8.52051C26.8771 8.44633 26.8701 8.36836 26.8687 8.28924V8.28836C26.8614 7.89607 26.9978 7.49665 27.1735 7.24255C27.3175 7.03396 27.5033 6.85767 27.7204 6.70495C27.4954 6.68706 27.2753 6.67149 27.04 6.66058C26.6688 6.64269 26.2524 6.63469 25.6815 6.63585C24.9417 6.63673 23.8607 6.69316 23.0407 6.74349L22.5639 6.77258L22.1901 6.79818L22.1511 6.80109C22.1136 6.96982 22.0369 7.20138 22.0367 7.20255L21.9382 7.16676L21.9286 7.19338L21.9002 7.19236L21.8963 7.29709C21.7716 7.29127 21.6452 7.29244 21.5191 7.29811C21.1159 7.31775 20.7226 7.39789 20.4087 7.53927C20.112 7.67266 19.889 7.86073 19.8039 8.10364C19.7782 8.17936 19.7652 8.25885 19.7655 8.33884C19.7664 8.55309 19.8844 8.70393 19.9513 8.77316C20.1058 8.73839 20.2582 8.69503 20.4079 8.64327C20.6159 8.57055 20.7492 8.52662 21.0609 8.54844L21.0406 8.83498C20.7875 8.81607 20.6755 8.85462 20.5005 8.91498C20.3702 8.95935 20.2076 9.01578 19.9396 9.0712C19.5731 9.14829 19.3549 9.26029 19.232 9.46393C19.1017 9.67745 19.0599 10.0025 19.0522 10.4897C19.0428 11.0421 19.1395 11.3871 19.3398 11.5879C19.5393 11.7864 19.8591 11.8558 20.2964 11.8545L20.2953 11.8571ZM22.3404 7.74596C22.3404 7.74495 22.4601 7.39106 22.6575 7.22625L22.8415 7.44589C22.7792 7.49825 22.7263 7.58407 22.6868 7.66116C23.8391 7.77898 24.3014 8.58815 24.3028 8.59004L24.4646 8.86786L24.1507 8.8024C23.9183 8.75411 23.3283 8.69375 22.8615 8.69476C22.7757 8.69476 22.6909 8.69767 22.6109 8.70349C22.5474 8.70708 22.4841 8.71504 22.4217 8.72735L22.4177 8.72836L22.3569 8.44764L22.3609 8.44662H22.3623C22.4176 8.43571 22.4845 8.42916 22.5533 8.42306C22.4796 8.29316 22.4224 8.14989 22.4016 8.01491C22.3975 7.98727 22.3972 7.95964 22.3958 7.93171L22.2794 7.9288L22.3402 7.74596H22.3404ZM5.65236 9.56138C5.93542 9.51295 6.54036 9.35076 6.85905 8.81913C6.74851 8.56822 6.20975 7.60662 4.60422 8.09375C4.99316 8.32327 5.61076 8.80356 5.65236 9.56138ZM10.2481 10.4449C10.4474 10.5099 10.6976 10.5566 11.0336 10.5812C11.0879 10.4034 11.1776 9.98524 11.0477 9.45753C10.9983 9.25593 10.9129 9.02175 10.7161 8.81724C10.5535 8.64705 10.3124 8.49491 9.94909 8.39135C10.078 8.7608 10.2182 9.46276 9.83273 10.2386C9.95055 10.3215 10.0823 10.3908 10.2493 10.4452L10.2481 10.4449ZM14.6836 12.8449C14.8497 13.1304 15.0903 13.3481 15.415 13.5052C15.9695 13.7732 16.5731 13.9234 17.2161 14.0053C17.8659 14.0892 18.5577 14.1051 19.2787 14.1032C19.4675 14.1032 19.666 14.0913 19.8666 14.0804C20.6044 14.0389 21.375 13.9945 22.2244 14.4556C23.2412 15.0087 23.4972 15.6556 23.5626 15.9559C23.654 15.9249 23.7517 15.8555 23.8407 15.6783C23.96 15.4407 24.0598 15.0383 24.1052 14.362C23.8419 14.3595 23.3274 14.3175 22.9796 14.0556V14.0546L22.8273 13.939L22.8269 13.9399C22.4345 13.6424 22.1476 13.4488 21.4477 13.4507C21.0012 13.4517 20.8812 13.515 20.7619 13.5781C20.6132 13.6571 20.4652 13.7364 19.9567 13.7372C19.6561 13.7372 19.3404 13.7353 19.0479 13.7176C18.7468 13.6997 18.4643 13.6663 18.2348 13.6059C17.6864 13.4604 17.2317 13.2225 16.8652 12.932C16.7914 12.8738 16.7233 12.8153 16.6605 12.7572C16.5966 12.6981 16.5352 12.6365 16.4762 12.5724L16.4748 12.5714C16.1795 12.2511 16.0596 11.7431 16.1071 11.2343C16.1165 11.1364 16.1318 11.0385 16.153 10.9419C16.1746 10.8451 16.2022 10.7498 16.2355 10.6564V10.6552L16.238 10.6484V10.6494C16.3427 10.3618 16.5235 10.0225 16.6442 9.80836C16.6243 9.80938 16.6047 9.80938 16.5846 9.81127C16.1191 9.84473 15.5833 10.0199 15.1555 10.3204C14.738 10.6113 14.4241 11.0258 14.3868 11.5388C14.3819 11.6102 14.382 11.6818 14.3872 11.7531C14.4188 12.1929 14.5143 12.5545 14.6836 12.8452V12.8449ZM2.23709 13.5412C2.13964 13.8975 2.19607 14.3877 2.41789 14.8215C2.5168 15.0149 2.64815 15.1959 2.81207 15.3461C2.9744 15.4964 3.16844 15.6158 3.39607 15.6889C3.86444 15.8392 4.47724 15.7928 5.24073 15.4024L5.37062 15.6565C4.76116 15.9684 4.23607 16.074 3.78589 16.0449C3.69062 16.2619 3.61978 16.4871 3.59389 16.7247C3.56727 16.9609 3.58735 17.2135 3.65062 17.4773C3.89571 17.5387 4.44189 17.8168 4.34444 19.0185C4.36189 19.0299 4.37426 19.0404 4.39535 19.052C4.44915 19.0814 4.50424 19.1085 4.56044 19.133C4.629 19.1622 4.69836 19.1896 4.76844 19.2149H4.76902C5.10604 19.3336 5.53498 19.4292 5.8992 19.4284C6.07447 19.4284 6.24102 19.4075 6.39636 19.37C6.8624 19.2585 7.23636 18.9976 7.51098 18.6903C7.78662 18.3829 7.96262 18.029 8.03244 17.7336C8.05527 17.6376 8.06647 17.5496 8.06647 17.4735C8.06647 17.3925 8.05993 17.3077 8.04902 17.2233C8.04349 17.1819 8.03651 17.1394 8.02865 17.0959C8.02121 17.0556 8.01267 17.0154 8.00305 16.9755C7.96815 16.8332 7.92596 16.7185 7.88582 16.6651L8.11418 16.4935C8.1776 16.5774 8.23782 16.7305 8.28146 16.9083C8.29193 16.9508 8.30153 16.9973 8.31054 17.045C8.31923 17.0926 8.3266 17.1403 8.33265 17.1883C8.34499 17.283 8.35145 17.3783 8.352 17.4738C8.35244 17.5736 8.33862 17.6833 8.31156 17.7989C8.25629 18.0335 8.12247 18.2955 7.95375 18.5524C8.15185 18.6843 8.52436 18.8543 8.97804 19.0571C10.1145 19.5671 11.6524 20.2648 12.0369 21.1483C12.0772 21.1284 12.1204 21.1047 12.1591 21.085C12.2748 21.0297 12.3828 20.9822 12.4787 20.9447C12.5053 20.9342 12.5249 20.9313 12.5514 20.9225C12.2285 20.4373 12.1536 19.8087 12.143 19.4193C11.4545 19.2482 10.5716 18.7461 9.87971 18.1993C9.74351 18.0919 9.6113 17.9795 9.48335 17.8623C9.36044 17.7489 9.24873 17.6361 9.15244 17.5284L9.15142 17.5273L9.3632 17.3346L9.36524 17.3367L9.36669 17.3377C9.46509 17.4475 9.56882 17.5524 9.67753 17.652C9.7968 17.7607 9.92422 17.8705 10.0564 17.9749C10.7004 18.4844 11.5073 18.9455 12.1447 19.1211C12.1462 19.0853 12.1482 19.0597 12.1482 19.0597L12.1591 18.9169L12.3002 18.9268C13.0211 18.9762 13.7146 18.9748 14.3773 18.9399C14.1846 18.7435 14.0388 18.5321 13.974 18.2836C13.8867 17.9534 13.9041 17.5781 13.9824 17.1441L14.015 16.9671L14.1801 17.0398C14.1825 17.0402 14.7929 17.3031 15.6995 17.4667C15.4202 17.3608 15.1322 17.2444 14.8413 17.1089H14.8407C14.654 17.0231 14.4647 16.9311 14.2753 16.8354C14.0874 16.7399 13.9013 16.6408 13.7172 16.538L13.671 16.5124H13.6701C12.8316 16.0418 11.9702 15.4796 11.2839 14.9388C11.155 14.8366 11.0281 14.7318 10.9033 14.6245C10.784 14.5208 10.6726 14.4199 10.5716 14.3211L10.4298 14.1996L10.5904 14.0958C11.0173 13.8172 11.3316 13.5454 11.5363 13.2376C11.7363 12.9342 11.8337 12.5893 11.8327 12.1604C11.8317 11.7455 11.6964 11.4273 11.4963 11.196C11.4532 11.1463 11.4067 11.0997 11.3569 11.0567C11.3081 11.0142 11.2561 10.9756 11.2032 10.9409C11.1654 10.9159 11.1273 10.8951 11.089 10.8748C10.6943 10.8501 10.3962 10.7992 10.1625 10.7227C10.001 10.6697 9.87244 10.6015 9.75287 10.5263C9.74385 10.6302 9.74182 10.7438 9.74531 10.8798C9.75578 11.3156 9.77004 11.9195 9.44785 12.8594L9.17731 12.7675C9.48276 11.8729 9.46938 11.2999 9.45993 10.8868C9.4544 10.6596 9.45047 10.4756 9.49542 10.3047C9.27287 9.94102 9.00276 9.596 8.62996 9.35018C8.25251 9.10146 7.75913 8.95455 7.0928 8.97971C6.64844 9.70146 5.78022 9.84415 5.56989 9.86655C5.34007 10.0319 5.18967 10.1953 5.11171 10.4037C5.03607 10.6047 5.02327 10.8725 5.04393 11.2188C5.14575 11.2455 5.24756 11.2732 5.35375 11.293C5.5888 11.3367 5.79796 11.4868 6.01964 11.7319C6.22676 11.9602 6.448 12.2734 6.71927 12.6607L6.48655 12.8251C6.22065 12.4455 6.0048 12.14 5.80916 11.9233C5.6288 11.7236 5.46924 11.603 5.30356 11.5735H5.30313C5.12713 11.5409 4.97731 11.5001 4.82633 11.4597C4.55898 11.387 4.2848 11.3143 3.88451 11.2895C3.63433 11.2747 3.44175 11.307 3.27418 11.4069C3.10953 11.5048 2.95942 11.6775 2.79709 11.9269C3.03331 12.9835 2.44655 13.4257 2.24116 13.5432L2.23709 13.5412ZM28.416 6.38844L28.3862 5.67905L27.7855 5.50015C27.3069 5.3688 26.7876 5.38553 26.1308 5.40735L25.2551 5.42596C25.0609 5.42596 24.8598 5.42407 24.6563 5.42204C23.783 5.41302 22.8516 5.40458 22.232 5.58611H22.2316C22.2042 5.59411 22.1772 5.60298 22.1511 5.61171L22.1686 6.51789H22.1696L22.5446 6.49127L23.0228 6.46218C23.842 6.41171 24.9283 6.35644 25.6803 6.35455C26.2604 6.35353 26.681 6.36153 27.0524 6.37927C27.4247 6.39673 27.752 6.42364 28.1439 6.45927L28.1409 6.48982C28.2304 6.45491 28.3155 6.41564 28.4173 6.39033L28.416 6.38844ZM23.2844 3.48705C23.2849 3.76778 23.4055 4.03047 23.5276 4.29724C23.6468 4.55818 23.7513 4.83062 23.784 5.13738L24.6588 5.13636L25.2551 5.13927L25.2864 5.13884L25.2829 3.0744C25.0196 3.00865 24.2941 2.88356 24.0841 2.84749C24.0371 2.88793 23.9921 2.92938 23.9348 2.96211C23.8538 3.00764 23.7719 3.04647 23.6887 3.08575C23.4851 3.18465 23.2841 3.29229 23.2844 3.4872V3.48705ZM25.095 1.97113L25.0921 2.01855L25.0911 2.03047C25.0826 2.16575 25.0436 2.32575 25.0076 2.47411C24.9884 2.54969 24.9715 2.62579 24.9567 2.70233L25.9523 2.71222C25.9098 2.46465 25.8249 2.03338 25.8243 2.03236L25.8144 1.98495H25.8624C25.9647 1.98495 26.5169 2.07076 26.6796 2.09549L26.686 1.24458C26.4879 1.26742 25.8804 1.35833 25.8793 1.35833L25.8348 1.36516V1.31978C25.8348 1.18815 25.9172 0.659418 25.9424 0.503345L24.9629 0.5C24.9993 0.707564 25.0912 1.30727 25.0912 1.30916L25.0992 1.35964L25.0479 1.3528L24.2329 1.23236L24.2279 2.09593L25.0945 1.96938L25.095 1.97113ZM22.1516 5.31149C22.5263 5.20124 22.9985 5.16022 23.498 5.14393C23.466 4.88895 23.3741 4.6488 23.2679 4.41607C23.1327 4.12167 22.9996 3.82989 22.9985 3.4872C22.9975 3.12138 23.2793 2.96647 23.5649 2.828C23.6367 2.79309 23.7072 2.7592 23.7695 2.72516C23.6796 2.68298 23.5942 2.63207 23.4989 2.60371C23.4505 2.5885 23.4015 2.57497 23.3521 2.56313C23.3043 2.55225 23.2562 2.54241 23.2079 2.5336C23.0817 2.51076 22.9654 2.50015 22.8704 2.50015C22.4726 2.50116 22.1076 2.65724 21.8892 2.94C21.8416 3.00225 21.8012 3.06945 21.769 3.1416C21.7354 3.2178 21.711 3.29773 21.6963 3.37971C21.6834 3.45343 21.6769 3.52814 21.6769 3.60298C21.679 4.41636 21.9591 5.0888 22.0772 5.3368C22.1023 5.32836 22.1252 5.31935 22.1514 5.31149H22.1516ZM27.0732 5.1128C27.0998 4.78989 27.1978 4.51207 27.3092 4.24502C27.425 3.96938 27.5395 3.69564 27.5391 3.37956C27.5385 3.24429 27.2895 3.12255 27.0559 3.00982C26.8823 2.92647 26.7321 2.83847 26.6289 2.73127C26.6009 2.74145 26.5745 2.74815 26.5465 2.75891C26.2585 2.86567 25.9399 2.97767 25.569 3.07076L25.5719 5.13331L26.1217 5.12196C26.4711 5.10989 26.7821 5.10116 27.073 5.11295L27.0732 5.1128ZM27.8247 3.37942C27.8257 3.75469 27.7004 4.05535 27.5738 4.35687C27.4705 4.60298 27.3795 4.85549 27.3568 5.13607C27.5281 5.1544 27.6967 5.17971 27.8608 5.22451C28.0329 5.27149 28.3175 5.35789 28.4666 5.40458C28.6237 5.16895 29.0819 4.41927 29.08 3.64531C29.08 3.4872 29.0586 3.34887 29.0221 3.22844C28.9504 2.99222 28.8185 2.82116 28.657 2.69971C28.4944 2.57709 28.3036 2.5048 28.1229 2.47135C28.0368 2.45476 27.9492 2.44643 27.8615 2.44647C27.527 2.44705 27.2332 2.52749 26.9373 2.62625C27.0065 2.66698 27.0919 2.70916 27.1802 2.75193C27.4921 2.9032 27.8236 3.06436 27.8246 3.37942H27.8247ZM3.78589 57.6644C3.52204 57.7386 3.32087 57.8651 3.15098 57.9873H3.15055C2.58909 58.3935 2.73193 59.0744 2.83055 59.3739C3.06676 59.2503 3.33018 59.1653 3.62516 59.1278C3.94924 59.0874 4.30953 59.1039 4.71069 59.1881C5.08815 58.358 4.85324 57.7966 4.76407 57.6325C4.35593 57.5656 4.03971 57.5918 3.78575 57.6641L3.78589 57.6644ZM30.5379 55.7481C31.1377 55.6168 31.6131 55.8914 31.8031 56.027C31.9373 55.9182 32.2057 55.6345 32.2045 55.107C32.2036 54.8184 32.1367 54.6561 32.0973 54.586C31.8697 54.5583 31.6537 54.5505 31.4515 54.5612C30.95 54.586 30.5328 54.7244 30.2308 54.9457C29.9385 55.1592 29.754 55.4519 29.7068 55.7945C29.7018 55.828 29.6986 55.8616 29.6973 55.8953C29.8855 55.8697 30.2111 55.8204 30.5373 55.7481H30.5377H30.5379ZM29.9852 59.7081C29.7517 60.1154 29.7725 60.637 29.8086 60.9256C30.1268 60.7071 30.7831 60.3041 31.2937 60.3031C31.4464 60.3031 31.7399 60.3564 31.9082 60.3889C31.9882 60.1013 32.1232 59.3326 31.473 58.7957C31.248 58.8265 30.3967 58.9895 29.985 59.708L29.9852 59.7081ZM34.5661 62.1628C34.3818 62.0107 34.1777 61.9426 34.0207 61.9316C33.977 61.9285 33.9331 61.9308 33.89 61.9386C33.7955 61.9594 33.5812 62.1521 33.3594 62.4604C33.3124 62.5265 33.2671 62.5947 33.226 62.662C33.1811 62.736 33.1392 62.8118 33.1007 62.8892L33.0966 62.898C32.9617 63.1708 32.9148 63.4485 32.9399 63.7372C32.9603 63.9762 33.0294 64.2234 33.1377 64.4823C33.3588 64.2571 33.7856 63.8481 34.1418 63.6677C34.4132 63.531 34.8356 63.468 35.0471 63.4444C35.0521 63.2417 35.0355 63.0638 35.0001 62.9087C34.9222 62.556 34.7552 62.3159 34.5664 62.1615L34.5661 62.1628ZM25.4272 53.8082C24.6253 53.2933 23.2486 52.6649 23.2447 52.6628L23.0905 52.5925L23.1865 52.4521C23.2479 52.3623 23.3174 52.2684 23.3887 52.1726C23.704 51.7484 24.0573 51.2732 24.0559 50.5656C24.0553 50.278 24.0163 50.0497 23.8893 49.8441C23.7594 49.6325 23.5335 49.4359 23.1606 49.2167C22.8079 49.0101 22.4234 48.8926 21.999 48.8273C21.5647 48.7618 21.0902 48.7493 20.568 48.7502C19.5897 48.7522 18.7072 48.2827 18.2175 47.5623C18.1144 47.4112 18.0292 47.2487 17.9635 47.078C17.8969 46.9046 17.8514 46.7238 17.8281 46.5396C17.817 46.4474 17.8114 46.3547 17.8115 46.2619C17.81 45.5512 17.9267 44.9377 18.4547 44.4228C18.9673 43.9236 19.8673 43.5311 21.4314 43.2533C21.8713 43.1753 22.5092 43.2199 23.0998 43.2623L23.4886 43.2879C23.0489 42.885 22.6755 42.4181 22.4381 41.9479C22.3741 41.8213 22.3188 41.6937 22.2749 41.5672C22.2312 41.4443 22.1973 41.3181 22.1737 41.1898C22.1543 41.0821 22.1446 40.9742 22.1446 40.8668C22.1431 40.3946 22.2004 39.9102 22.3002 39.5167C22.322 39.4295 22.3468 39.3465 22.374 39.2665C22.399 39.1917 22.428 39.1181 22.4608 39.0463C22.4892 38.9841 22.5187 38.9285 22.5485 38.8802C22.6892 38.654 22.904 38.4485 23.0855 38.2667C23.2393 38.1125 23.3651 37.9831 23.3648 37.9257C23.3648 37.9025 23.3564 37.8827 23.3549 37.8594C22.9549 37.7207 22.511 37.6302 21.9757 37.6084C21.3917 37.5836 20.7073 37.6343 19.8806 37.7655L19.8797 37.7665H19.8739C19.4863 37.8268 19.014 37.8407 18.5407 37.8535C18.0412 37.8665 17.5399 37.8801 17.1536 37.9503C16.4455 38.0798 15.8275 38.219 15.2471 38.3867C14.674 38.5534 14.1137 38.7615 13.5706 39.0092C12.3197 39.5785 11.5299 40.1615 10.9629 40.7852C10.3956 41.4078 10.0465 42.0779 9.68073 42.8152L9.68015 42.8161L9.67927 42.8171C9.6432 42.8891 9.58036 42.9762 9.49251 43.0731C9.41004 43.164 9.30342 43.2665 9.17251 43.3756C8.52262 43.9221 7.29324 44.6335 5.73571 44.8561C5.01862 44.9588 4.52553 45.0263 4.10895 44.9717C3.768 44.9284 3.48844 44.8044 3.20044 44.5605C3.21876 45.1841 3.46778 46.6222 5.26589 47.5205L5.27229 47.5244H5.27273C5.4848 47.6292 5.69964 47.7172 5.91665 47.7895C6.13484 47.8593 6.35302 47.9138 6.57338 47.9515C7.70793 48.1442 8.8928 47.8971 10.0545 47.2597L10.2207 47.1688L10.2631 47.3535C10.2636 47.3556 10.4569 48.2489 10.8851 48.6798C11.7183 49.5179 12.4412 50.1919 13.3516 50.7016C14.2607 51.2126 15.3632 51.5624 16.9597 51.7551L17.0945 51.772L17.0855 51.9064C17.0855 51.9103 17.0375 53.0351 15.5696 54.7003C15.5053 54.7745 15.4352 54.8475 15.3616 54.9205C15.2423 55.0383 15.1155 55.1497 14.982 55.2555C14.8478 55.3621 14.7084 55.4618 14.5641 55.5541C13.879 55.9928 13.0841 56.2734 12.37 56.2744C11.9258 56.2764 11.6166 56.214 11.3728 55.9879C11.1401 55.7704 10.984 55.4089 10.8448 54.8088C10.7331 54.3295 10.6135 54.0113 10.3917 53.7957C10.168 53.5794 9.82444 53.449 9.26705 53.3422V53.3412C9.201 53.3292 9.13432 53.321 9.06735 53.3166C9.00461 53.3136 8.94174 53.3146 8.87913 53.3195C8.58676 53.3406 8.35942 53.4479 8.25367 53.5806C8.19185 53.7426 7.78764 54.6725 6.68087 54.8523C6.4624 55.014 6.33149 55.1662 6.26226 55.3415C6.20291 55.4921 6.18807 55.6782 6.18705 55.893C6.56698 55.8396 6.90662 55.852 7.23811 55.9563C7.69484 56.0996 8.12902 56.4101 8.63651 56.9425L8.42895 57.1403C7.95665 56.6443 7.55985 56.3577 7.15331 56.23C6.74967 56.1035 6.32465 56.1303 5.79535 56.2609H5.79491C4.84262 56.4936 4.97018 57.3351 4.99142 57.4482C5.06851 57.5729 5.46095 58.3026 4.93324 59.3832C4.88815 59.7025 5.0016 60.1073 5.18371 60.4412C5.36073 60.7663 5.59447 61.0193 5.79796 61.053V61.052L5.80233 61.053C5.84451 61.058 5.93818 60.9927 5.93818 60.9927L5.93862 60.9937L5.94007 60.9927C5.97004 60.9701 5.98604 60.7941 6.00698 60.5569C6.05891 59.9809 6.13687 59.1071 6.86182 58.5496L6.86284 58.5486L6.86691 58.5457C6.95855 58.4754 7.06444 58.4148 7.17993 58.3566C7.29484 58.3031 7.41847 58.2577 7.54764 58.2213C8.20844 58.0366 9.06953 58.0671 9.79345 58.3646L9.68465 58.6293C9.02022 58.3567 8.2304 58.3279 7.62502 58.4984C7.5138 58.5291 7.40538 58.5691 7.30095 58.6181C7.20465 58.6625 7.11665 58.7148 7.03956 58.7742L7.03564 58.7771C6.41062 59.2593 6.33745 60.0556 6.29193 60.5818C6.27302 60.7873 6.25847 60.9582 6.21091 61.0788C6.24393 61.1089 6.27782 61.162 6.31273 61.2044C6.36509 61.1575 6.41498 61.0968 6.46793 61.0602C6.64145 60.9394 6.81847 60.8725 6.968 60.8713C7.06342 60.8713 7.16436 60.8969 7.26298 60.9455C7.40087 61.0139 7.53964 61.1284 7.65716 61.2801C7.77207 61.4284 7.8688 61.6151 7.92771 61.8306C7.96669 61.9729 7.98909 62.1291 7.98953 62.2942C7.98976 62.3908 7.98203 62.4873 7.9664 62.5826C7.9613 62.6117 7.95568 62.6407 7.94953 62.6696C7.93615 62.7298 7.92044 62.7852 7.90269 62.8337C7.8832 62.8871 7.86022 62.9335 7.83433 62.974C7.84335 62.986 7.84887 62.9976 7.85862 63.0095V63.0106C7.90921 63.0721 7.96498 63.1292 8.02531 63.1813C8.09105 63.2398 8.16495 63.2962 8.24349 63.3495L8.24407 63.3505C8.62444 63.6036 9.14589 63.7963 9.63651 63.7951C9.72 63.7951 9.80785 63.7852 9.89833 63.7675C9.98415 63.75 10.0719 63.7241 10.1613 63.6916C10.2497 63.6581 10.3405 63.6153 10.4333 63.565C10.8217 63.3521 11.2042 62.9915 11.4995 62.5009C11.2575 62.1845 11.1936 61.8842 11.1932 61.561C11.1926 61.477 11.2016 61.382 11.2175 61.2843C11.2284 61.2203 11.2422 61.153 11.2589 61.0876C11.2758 61.0184 11.2953 60.9495 11.3171 60.8831C11.4105 60.5995 11.5527 60.3159 11.7248 60.126L11.9369 60.3186C11.7936 60.4769 11.6719 60.723 11.59 60.972C11.5692 61.0363 11.5507 61.0977 11.5366 61.1557C11.5217 61.2161 11.5092 61.2744 11.5002 61.3305C11.487 61.4066 11.4798 61.4836 11.4788 61.5608C11.4799 61.8258 11.5312 62.0708 11.7268 62.3278C11.934 62.5998 12.3007 62.8892 12.9287 63.2321C13.4099 63.4953 13.8966 63.3848 14.3577 63.2721C14.3657 63.2085 14.3681 63.1455 14.3878 63.0789H14.3872C14.458 62.8458 14.6087 62.5996 14.841 62.4098C15.0727 62.2207 15.3856 62.0919 15.7809 62.0908C15.9322 62.0908 16.1039 62.1239 16.2799 62.1665C16.4217 61.9871 16.5527 61.7342 16.6396 61.4526C16.6609 61.3834 16.6803 61.3112 16.6963 61.2359C16.7117 61.1639 16.7244 61.0919 16.7334 61.0206C16.7436 60.9356 16.7494 60.8545 16.7489 60.7806C16.7485 60.478 16.6176 60.2183 16.4575 60.0097C16.2909 59.7941 16.09 59.63 15.9629 59.5294C15.7164 59.3337 14.8797 59.0107 14.8774 59.0097L14.6074 58.9089L14.8511 58.7547C15.4307 58.3881 16.04 58.2558 16.662 58.3038C17.2484 58.3471 17.8454 58.5489 18.4388 58.8602C18.6454 58.6783 19.2534 58.118 19.9031 57.2584L19.959 57.1851L20.0489 57.2047C20.0561 57.2068 22.5513 57.7429 22.8135 59.4855C23.0753 59.5212 23.8428 59.524 24.5834 58.5566C24.8399 58.2216 24.8548 57.443 24.8031 56.9595C24.7932 56.8657 24.7809 56.7838 24.767 56.7185C24.7556 56.6641 24.7444 56.6254 24.7356 56.6097H24.735C24.4561 56.1215 23.6973 55.6008 22.9511 55.2696C22.8086 55.2053 22.6625 55.1482 22.5191 55.0994C22.3877 55.0529 22.2537 55.0143 22.1177 54.9838L22.1148 54.9828L22.1766 54.7039H22.1795C22.3199 54.7355 22.4656 54.777 22.6124 54.8276C22.7581 54.877 22.9113 54.9381 23.0679 55.0074C23.8611 55.3602 24.6749 55.9263 24.985 56.4671L24.9855 56.4692H24.986C25.0086 56.5096 25.0304 56.5756 25.0476 56.6583C25.0527 56.6815 25.056 56.7161 25.0607 56.7426C25.3377 56.6553 25.5892 56.5419 25.7676 56.3697C25.9702 56.1739 26.0934 55.9051 26.0927 55.5297C26.0912 55.0968 26.0502 54.741 25.944 54.4555C25.8485 54.1867 25.6651 53.9579 25.4236 53.8062L25.4272 53.8082ZM46.9798 57.7157C46.5411 57.4687 45.6057 57.4292 45.3082 57.4248C45.2311 57.6135 45.0621 58.0857 45.0636 58.5938C45.0636 58.6709 45.073 58.7489 45.0929 58.826V58.827C45.1028 58.8665 45.115 58.9041 45.1289 58.9397H45.1295C45.159 59.0139 45.2004 59.0881 45.2538 59.1608C45.2887 59.2073 45.33 59.2539 45.3753 59.2981C45.5353 59.1992 45.8785 59.0401 46.4244 59.0382C46.9779 59.0372 47.3347 59.1825 47.5398 59.3087C47.5683 58.884 47.5482 58.035 46.9798 57.7166V57.7157ZM47.4598 44.1259C47.1799 44.1525 46.8401 44.1841 46.4131 44.2463C44.6214 44.5093 44.1837 45.3464 44.1827 45.3484L43.9148 45.8455L43.9133 45.2801C43.9113 44.5647 43.5857 43.7641 42.9719 43.2975C42.8448 43.2015 42.7057 43.1186 42.554 43.0553C42.4023 42.9921 42.2387 42.9467 42.0633 42.9244C41.9682 42.9122 41.8725 42.906 41.7767 42.9058C41.4512 42.9068 40.9546 43.1201 40.4851 43.4137C40.3654 43.4889 40.2484 43.57 40.1372 43.6532C40.0286 43.7333 39.9237 43.8183 39.8228 43.9079C39.7261 43.9948 39.6381 44.082 39.5622 44.1668C39.1356 44.645 38.8393 44.9534 38.4916 45.148C38.1393 45.3447 37.7495 45.418 37.1421 45.42C36.3441 45.422 35.7571 45.1839 35.3258 44.6244C34.9072 44.0828 34.6445 43.2425 34.4822 42.0261C34.2777 40.4894 34.0963 39.5989 33.8199 38.8686C33.5453 38.1423 33.1706 37.5633 32.5817 36.6539L32.8169 36.491C32.8208 36.4959 34.1036 38.3113 37.6169 38.3036C38.6816 38.3007 39.8158 37.9705 40.8169 37.4498C41.0238 37.3422 41.2241 37.2265 41.4151 37.1051C41.6074 36.9836 41.7933 36.8549 41.9693 36.7207C42.034 36.6708 42.0981 36.6201 42.1614 36.5685C42.736 36.098 43.2471 35.53 43.6145 34.8162C43.9815 34.1016 44.2054 33.2389 44.2029 32.1815C44.2 30.8108 44.1134 30.4748 43.8305 29.3689H43.8301L43.7457 29.0407L42.9283 25.8804C42.6308 24.7644 42.3092 23.6073 41.9703 22.4815C41.4153 20.6364 40.9053 18.814 40.5342 17.1073C40.1619 15.3967 39.928 13.7986 39.9248 12.4082C39.9204 10.5788 40.2268 9.9544 40.5302 9.37506L40.5712 9.29709V9.29607C40.8835 8.70204 41.19 8.3128 41.5559 8.06771C41.9268 7.82073 42.3491 7.72676 42.8906 7.72589C44.1101 7.72298 44.743 7.98684 45.0608 8.37418C45.3494 8.72705 45.3692 9.16342 45.3292 9.59367C45.6297 9.57855 46.0339 9.56604 46.4521 9.55731L47.64 9.53651C47.6356 9.26815 47.615 9.01476 47.5774 8.77651C47.5393 8.53738 47.4851 8.31295 47.4163 8.10451C47.073 7.06785 46.3486 6.41549 45.3834 6.12604C45.252 6.08632 45.1191 6.05168 44.985 6.02218C44.7419 5.96888 44.4962 5.92834 44.2489 5.90073C43.9859 5.87164 43.7136 5.85229 43.4372 5.84749C42.1284 5.82756 40.6756 6.1064 39.6479 6.88807H39.6484C38.832 7.5096 38.3222 8.32589 38.0173 9.24502C37.7089 10.1739 37.6081 11.2108 37.6105 12.2591C37.6145 13.9749 37.9036 15.7983 38.3286 17.6482C38.7542 19.4969 39.3177 21.3797 39.8698 23.206L39.8703 23.2079L39.8708 23.2089C40.3091 24.6628 40.6748 26.0782 41.0217 27.421L41.3276 28.598L41.3879 28.8273C41.6608 29.8561 41.8355 30.5172 41.8391 32.0491C41.8396 32.3012 41.8212 32.5372 41.7872 32.7589C41.586 34.0466 40.8359 34.8441 39.9731 35.3303C39.1217 35.8095 38.1607 35.9826 37.5178 36.0241C37.4087 36.0311 37.3057 36.0343 37.2119 36.0343C37.1206 36.0351 37.0321 36.0322 36.9465 36.0261C36.6613 36.0091 36.3787 35.9628 36.103 35.8879C35.8269 35.8137 35.558 35.7109 35.298 35.5845C34.0253 34.962 32.9501 33.7304 32.2988 32.1263C32.2848 32.0919 32.27 32.0536 32.2543 32.0107V32.0098C31.8823 31.0196 31.8041 29.8228 31.7306 28.6891L31.6783 27.9383C31.5837 27.8185 31.4865 27.7008 31.3868 27.5854C31.1773 27.3447 30.9548 27.1158 30.7203 26.8996C30.5078 26.704 30.2842 26.5208 30.0506 26.3511C28.9884 25.5781 27.9615 25.2796 27.2065 25.282C25.2207 25.286 23.1057 27.1736 23.0993 27.1787L22.9702 27.2911L22.8823 27.1439C22.8521 27.0952 22.8253 27.0443 22.8023 26.9918C22.7776 26.9374 22.7543 26.8761 22.7331 26.81C22.6377 26.5135 22.5943 26.0839 22.6288 25.5663C22.1129 25.5842 21.3776 25.9137 20.5471 26.298L19.7584 26.6558C18.8127 27.0699 17.8956 27.2921 17.0515 27.3781C16.8868 27.3941 16.7239 27.4057 16.5633 27.413C16.4051 27.4188 16.2484 27.4209 16.0943 27.418L16.0662 27.4169H16.0657C16.0577 27.4169 16.0493 27.413 16.041 27.4126C15.2556 27.9452 13.7897 28.5762 12.5377 29.1159L12.3113 29.2137L12.3107 29.2127C12.2748 29.2287 12.1241 29.3285 11.8973 29.4777C11.2369 29.9127 9.94793 30.7614 8.67156 31.3623L8.65775 31.3681L8.44276 31.4689L8.4544 31.2318C8.4544 31.2279 8.54749 29.8798 7.52756 28.8798C6.92247 28.2857 6.37265 28.3451 5.71738 28.4162L5.49862 28.438C5.26938 29.3985 4.42226 29.4248 4.17498 29.4087C3.93789 29.6004 3.81571 29.7858 3.77062 29.958C3.73164 30.1064 3.74531 30.2497 3.76771 30.3839C3.82996 30.38 3.88698 30.3679 3.95098 30.3679C4.0464 30.3679 4.13716 30.372 4.22298 30.3788C4.39971 30.3937 4.57353 30.4244 4.74138 30.468C4.90539 30.511 5.06567 30.5671 5.22065 30.6359V30.6348C5.95375 30.9599 6.51331 31.5471 6.75593 32.1902L6.488 32.2911C6.27098 31.717 5.76771 31.1912 5.10502 30.8977V30.8967C4.96713 30.8356 4.82138 30.7839 4.66895 30.7444C4.51913 30.7058 4.36233 30.6783 4.19913 30.6644C4.11664 30.6574 4.03391 30.6537 3.95113 30.6535C3.29542 30.6553 2.77615 30.861 2.47709 31.2098C2.41628 31.2813 2.36391 31.3595 2.32102 31.443C2.2786 31.5282 2.24657 31.6181 2.2256 31.7109C2.21426 31.7623 2.20626 31.8183 2.20204 31.875C2.21716 31.9477 2.24422 32.0721 2.2704 32.218C2.30022 32.3809 2.32567 32.5608 2.32626 32.6892C2.32727 33.2158 2.16916 33.467 2.06938 33.578C2.07927 33.6249 2.08829 33.6713 2.10284 33.7208C2.1232 33.7931 2.14647 33.8633 2.17207 33.9303C2.29382 34.245 2.48844 34.54 2.73498 34.7282C2.9968 34.4228 3.35127 34.1649 3.77266 34.0014C4.05435 33.8928 4.34998 33.8246 4.65076 33.7988L4.67549 34.0846C4.39287 34.1093 4.12306 34.1733 3.87593 34.2683C3.47011 34.4264 3.12626 34.6706 2.89309 34.9665C2.66618 35.2571 2.54473 35.6002 2.57629 35.9668C2.58676 36.0834 2.61906 36.2039 2.66153 36.3243C2.80698 36.3876 2.98109 36.5009 3.13673 36.6661C3.17279 36.7036 3.20692 36.7428 3.23898 36.7838C3.27244 36.8254 3.30327 36.8687 3.33149 36.9144H3.33193L3.33382 36.9183C3.50836 37.1944 3.47724 37.9086 3.46546 38.1121C3.50327 38.1615 3.54196 38.2105 3.58473 38.2546V38.2555C3.65164 38.3257 3.72756 38.3922 3.80873 38.4542C3.88873 38.5145 3.97426 38.5691 4.06327 38.6183C4.4784 38.8457 4.97382 38.9484 5.44887 38.9465C5.52987 38.9464 5.61082 38.9428 5.69149 38.9356C5.8308 38.9228 5.96897 38.8996 6.10487 38.8664C6.23499 38.8347 6.36257 38.7934 6.48655 38.7428C7.02415 38.5223 7.41745 38.1532 7.54691 37.7694C7.36218 37.5425 7.20407 37.2887 7.10662 37.0133C6.97716 36.6488 6.92945 36.2661 6.97862 35.9431C7.01469 35.7099 7.10124 35.5044 7.24335 35.3521L7.45193 35.5487C7.35011 35.6555 7.28931 35.8087 7.26225 35.9851C7.21978 36.2617 7.26269 36.5948 7.37673 36.917C7.49164 37.2399 7.67782 37.5495 7.92029 37.7778C8.11753 37.9636 8.35229 38.0952 8.616 38.1356C9.25949 38.2334 9.79505 38.1307 10.1821 37.9182C10.2566 37.8767 10.3254 37.8312 10.3869 37.7848C10.4384 37.7452 10.4838 37.7023 10.5273 37.6587C10.5687 37.4201 10.8044 36.4447 11.7631 36.37C11.8348 36.2446 11.9114 36.0581 11.9716 35.8468C11.99 35.7825 12.006 35.7221 12.0186 35.667C12.0322 35.6077 12.0439 35.548 12.0537 35.4879C12.0697 35.389 12.0784 35.2964 12.0784 35.2145C12.0769 34.4385 11.762 33.813 11.3881 33.4021C11.3144 33.3201 11.2346 33.2437 11.1495 33.1736C11.0703 33.1086 10.991 33.0521 10.9133 33.0078H10.9129C10.8707 32.9831 10.8304 32.9612 10.7927 32.9445L10.9105 32.6836C10.96 32.7051 11.0095 32.7308 11.0577 32.7598H11.0573C11.1472 32.8119 11.2396 32.8761 11.3313 32.9524C11.4233 33.0276 11.5139 33.1135 11.6004 33.2094C11.8016 33.4305 11.9859 33.7097 12.1236 34.035C12.8432 33.9218 13.5335 33.6713 14.1135 33.4564L14.4183 33.3447L14.5271 33.3063L14.5882 33.403C14.5911 33.4079 15.574 35.0321 17.746 35.0257C17.8324 35.0257 17.9223 35.0228 18.0134 35.0178C18.1696 35.0091 18.3252 34.9931 18.4784 34.9703C18.6326 34.9477 18.7814 34.9189 18.9226 34.8853C19.4756 34.7529 19.9514 34.5365 20.2998 34.2837C20.2233 34.2697 20.1452 34.2641 20.0695 34.2452C19.8979 34.2018 19.7296 34.1454 19.5686 34.0779C18.7916 33.7521 18.138 33.155 17.7961 32.4772L18.0516 32.3474C18.3639 32.9671 18.9641 33.5128 19.6807 33.8132C19.83 33.8758 19.9836 33.9273 20.1404 33.9673C20.297 34.0059 20.4572 34.0337 20.6185 34.0463C20.7007 34.0533 20.7802 34.0565 20.8551 34.0565C21.1606 34.0565 21.4854 33.9625 21.8089 33.8184C22.1391 33.67 22.4697 33.4684 22.778 33.2588C23.4189 32.821 23.6391 32.3883 23.7143 32.1599C21.6663 32.2152 21.2457 31.1511 21.2442 31.1479L21.1889 31.0126L21.3257 30.9592C22.7255 30.4156 24.2678 30.0628 25.7955 30.1298C26.0934 30.1438 26.3914 30.1735 26.6879 30.22C26.9858 30.2669 27.2805 30.3322 27.5703 30.4156V30.4146L27.5732 30.4156L27.6481 30.4372L27.671 30.5113C27.6724 30.5153 28.1251 32.0056 29.8986 31.9368L29.91 32.2223C29.5705 32.2357 29.2852 32.1874 29.0271 32.1147C29.0231 32.1691 29.0129 32.2233 29.0176 32.2767C29.0429 32.5586 29.1911 32.8324 29.4298 33.0564C29.6753 33.2865 30.0145 33.4655 30.4137 33.5509C30.6464 33.5993 30.9028 33.6164 31.1708 33.5924L31.1948 33.877C30.898 33.9036 30.6148 33.8857 30.3555 33.8305C29.9028 33.7356 29.5159 33.5311 29.2336 33.2664C28.9452 32.9944 28.7644 32.6565 28.7327 32.3028C28.7247 32.2123 28.7366 32.1209 28.7487 32.0289C27.8778 31.6692 27.5181 30.9147 27.425 30.674C27.168 30.6012 26.9066 30.5465 26.6439 30.5048C26.359 30.46 26.0717 30.4313 25.7836 30.4188C24.3555 30.3556 22.9108 30.6719 21.5857 31.1689C21.77 31.4231 22.3447 31.9576 23.8873 31.8686L24.0545 31.8587L24.0377 32.026C24.0377 32.0279 23.9833 32.786 22.9402 33.4974C22.6207 33.715 22.2759 33.9243 21.9261 34.0804C21.8249 34.1259 21.7225 34.1541 21.6207 34.1895C21.8228 34.4658 22.1033 34.5854 22.7251 34.8215L23.2177 35.012C23.406 35.0862 23.5828 35.1868 23.7472 35.3076C23.9101 35.4275 24.0608 35.5632 24.1969 35.7128C24.3328 35.859 24.4561 36.0191 24.5664 36.182C25.0076 36.8363 25.2423 37.5755 25.2433 37.9374C25.2436 38.0403 25.2399 38.1431 25.2324 38.2458C25.1999 38.7121 25.0996 39.2479 24.9993 39.7864C24.8764 40.4456 24.752 41.1109 24.7532 41.6424C24.7542 42.1256 24.8964 42.5119 25.0393 42.9003C25.1696 43.254 25.3007 43.611 25.3382 44.0526C25.399 44.7643 25.4854 45.3788 25.6436 45.9601C25.8028 46.539 26.0359 47.0905 26.3923 47.6815L26.8092 48.3585C27.4684 49.4159 28.0208 50.3015 28.0228 51.1217C28.0243 51.9705 27.8356 52.5052 27.6956 52.7828C28.0145 52.7612 28.6051 52.6644 29.2263 52.278C29.5873 52.0526 29.9759 51.77 30.337 51.3826C30.6716 51.0233 30.9779 50.5599 31.2255 49.9822C30.7763 49.6593 30.3591 49.2968 30.0143 48.8981C29.7655 48.6116 29.5514 48.3081 29.3837 47.9928C29.2144 47.6757 29.0922 47.3464 29.03 47.0114C29.0114 46.9127 28.9982 46.8131 28.9905 46.7129L29.2765 46.6911C29.2835 46.7823 29.2948 46.8719 29.3114 46.9602C29.3679 47.2647 29.4801 47.566 29.6355 47.8585C29.7921 48.1529 29.9948 48.4396 30.23 48.7105C31.399 50.0603 33.3722 51.0457 34.7789 51.0418C36.6913 51.0378 38.5031 50.0716 38.5084 50.0684L38.6486 49.9954L38.7085 50.1416L38.7095 50.1445V50.1454C38.7697 50.2956 38.8279 50.4727 38.8819 50.67C38.9358 50.8674 38.986 51.0831 39.0303 51.3066C39.2589 52.4738 39.3597 54.0094 39.1903 55.15C39.1263 55.5809 39.0326 55.8507 38.8458 56.0228H38.8462C38.6566 56.1956 38.3932 56.2511 37.991 56.252C37.5334 56.2539 37.2573 56.2015 37.0592 56.1048C36.8497 56.002 36.7389 55.8607 36.6054 55.6827C36.0556 54.9464 35.5913 54.4503 35.1264 54.1409C34.6708 53.8383 34.2089 53.7132 33.654 53.7141C32.6697 53.716 32.4831 54.124 32.3455 54.4327V54.4335L32.3396 54.4466C32.399 54.5513 32.4895 54.7608 32.4899 55.1089C32.4913 55.8148 32.087 56.1756 31.9313 56.2878C31.911 56.4209 31.8938 56.5813 31.9066 56.764C31.918 56.9196 31.9629 57.0913 32.0332 57.2673C32.1091 57.2024 32.1892 57.1329 32.2886 57.0665C32.4259 56.9756 32.5786 56.9004 32.7249 56.8857H32.7258L32.7319 56.8847H32.7324C32.7644 56.8818 32.8113 56.8789 32.8682 56.876C32.9216 56.8731 32.9887 56.8711 33.0668 56.869C33.4502 56.862 34.0409 56.8778 34.4228 56.9818L34.3484 57.2584C33.9955 57.1624 33.4361 57.1486 33.072 57.1556C33.0085 57.1563 32.9451 57.1583 32.8817 57.1615C32.8409 57.1632 32.8002 57.1661 32.7596 57.1704H32.7542C32.6596 57.1806 32.5501 57.2367 32.4452 57.3057C32.3311 57.3816 32.2241 57.4725 32.1459 57.5409C31.793 57.8452 31.7313 58.2148 31.6768 58.5445C31.6739 58.5586 31.6704 58.582 31.6673 58.5993C32.4906 59.3015 32.2353 60.3084 32.1556 60.5522C32.1818 60.6228 32.2109 60.693 32.2455 60.7602C32.2854 60.8376 32.3308 60.912 32.3814 60.9828C32.6025 61.2894 32.9126 61.5006 33.255 61.5876C33.2109 61.1192 33.2371 60.4559 33.5756 59.875V59.874C33.8519 59.4034 34.1635 59.1198 34.535 58.9717C34.903 58.8254 35.3194 58.8175 35.8089 58.8946L35.7638 59.1772C35.3235 59.107 34.9543 59.1118 34.6401 59.2375C34.3303 59.3611 34.0641 59.6062 33.8233 60.0181C33.5033 60.5679 33.4953 61.219 33.5457 61.6449V61.6459C33.553 61.7084 33.5623 61.7604 33.5713 61.812C33.6717 61.731 33.7625 61.6741 33.8259 61.6597C33.8877 61.6471 33.96 61.6423 34.0375 61.6471C34.2451 61.6609 34.5103 61.7489 34.7456 61.9423C34.9773 62.1321 35.1828 62.4238 35.2772 62.8485C35.3172 63.0289 35.3311 63.2379 35.3246 63.4667C35.4026 63.4885 35.505 63.5205 35.593 63.5601C36.0269 63.755 36.2999 63.8724 36.5748 63.9199C36.8477 63.9674 37.1373 63.9465 37.6086 63.8684C38.3632 63.7431 38.8915 63.4347 39.2372 62.9041C39.5916 62.3595 39.7638 61.5775 39.7991 60.5223L39.8035 60.3841H39.9417C39.9417 60.3841 40.0864 60.3851 40.2627 60.3644C40.0028 60.1218 39.8982 59.8332 39.7412 59.0095L40.0224 58.9572C40.227 60.0303 40.3225 60.0946 40.8813 60.467L41.0275 60.5659H41.0281C42 61.2212 42.8934 61.3397 43.6385 61.2142C43.7847 61.1895 43.9245 61.156 44.0572 61.1153C44.1898 61.0746 44.3181 61.0283 44.4385 60.9749H44.438L44.442 60.9729H44.4445C45.0988 60.6884 45.2013 60.1607 45.2169 59.7515C45.2193 59.6722 45.2189 59.6043 45.2189 59.5374C45.1459 59.4705 45.0749 59.4025 45.0211 59.3314C44.9533 59.2395 44.8999 59.1438 44.8604 59.0459V59.0449C44.8403 58.9944 44.824 58.945 44.8115 58.8965C44.7868 58.7988 44.7745 58.6969 44.7745 58.5934C44.7731 57.9999 44.9786 57.4628 45.0534 57.2863C44.904 56.9799 44.7319 56.7273 44.526 56.5496C44.3148 56.3635 44.0505 56.2485 43.7705 56.2206C42.9264 56.1287 42.2316 56.7028 42.2297 56.7047L41.8739 56.9932L42.0023 56.5546C42.7558 53.9752 44.5827 53.739 45.1354 53.7269L44.99 50.6209L44.9841 50.4618L45.1441 50.4716C46.1091 50.5371 46.8396 50.3993 47.3806 50.1396C47.8497 49.9151 48.1772 49.5991 48.393 49.2421C48.61 48.8853 48.7164 48.4881 48.7421 48.1036C48.7712 47.6654 48.6883 47.2567 48.5533 46.9364C48.2355 47.1255 47.8839 47.2546 47.4963 47.2684C46.9377 47.2873 46.3108 47.3295 45.7962 47.4296C45.3159 47.5224 44.9427 47.6587 44.8483 47.8633L44.5865 47.7419C44.7268 47.4393 45.176 47.2575 45.7408 47.148C46.2707 47.0462 46.9132 47.0025 47.4865 46.9819C48.2768 46.9553 48.9444 46.4481 49.3033 45.7128C49.378 45.5596 49.4396 45.3967 49.4851 45.2267C49.5316 45.0556 49.5626 44.8767 49.577 44.6929C49.5828 44.6107 49.5863 44.5307 49.5863 44.4529C49.5844 43.6988 49.2464 43.262 49.0384 43.0652C48.7751 44.003 48.4828 44.0306 47.4567 44.1265L47.4598 44.1259ZM15.0022 31.9662C13.9007 32.3586 13.216 32.6027 12.5295 32.6868L12.496 32.4021C13.1527 32.3221 13.8255 32.0818 14.9082 31.6955L16.401 31.1729L16.4929 31.4449L15.0035 31.9665L15.0022 31.9662ZM24.945 38.2251V38.2241C24.9522 38.1281 24.956 38.0319 24.9564 37.9356C24.9555 37.6164 24.7376 36.9495 24.3274 36.3404C24.2247 36.1883 24.11 36.0408 23.9846 35.9036C23.8592 35.7684 23.7232 35.643 23.5779 35.5371C23.4336 35.4313 23.2778 35.3425 23.1113 35.2775H23.1108L22.9348 35.2095L22.3869 35.8792V35.8802L22.2816 36.0097C22.6749 36.2281 23.6468 36.8732 23.6493 37.9259C23.6493 38.0946 23.4867 38.2706 23.2871 38.4703C23.1155 38.6424 22.9104 38.8391 22.7905 39.0318C22.7652 39.0711 22.7417 39.1167 22.7196 39.1652C22.6937 39.2225 22.6681 39.2878 22.6439 39.3586C22.6204 39.4279 22.5981 39.5049 22.577 39.5879C22.4822 39.9602 22.4278 40.4199 22.4287 40.8667C22.4295 40.9581 22.4382 41.0493 22.4547 41.1393C22.4752 41.2525 22.5048 41.364 22.5431 41.4725C22.5856 41.5911 22.6353 41.7069 22.6919 41.8194C22.9616 42.3521 23.4128 42.8876 23.9472 43.3118L23.9439 43.3161L24.2743 43.3404C24.4934 43.357 24.6909 43.3695 24.8973 43.378C24.8571 43.2501 24.814 43.1232 24.768 42.9973C24.6173 42.5864 24.4665 42.1769 24.4655 41.6407C24.464 41.0811 24.5905 40.4043 24.7156 39.7332C24.8145 39.2033 24.9127 38.6776 24.9443 38.2248L24.945 38.2251ZM11.881 38.7727C12.0788 38.5356 12.2493 38.2232 12.3052 37.8959V37.8949C12.3177 37.8211 12.3241 37.7465 12.3242 37.6716C12.3238 37.597 12.3161 37.5225 12.3012 37.4494L12.3007 37.4465C12.2352 37.1381 11.9142 36.7687 11.7991 36.644C11.0922 36.6884 10.8784 37.3812 10.8223 37.6447C11.2116 37.8583 11.6784 38.4825 11.8812 38.7726L11.881 38.7727ZM8.20509 49.9084C8.90138 50.2088 9.75564 50.3137 10.6708 50.1227C10.9901 50.0567 11.3177 49.9444 11.6477 49.8017C11.3169 49.5049 10.995 49.1983 10.6825 48.8824C10.3238 48.5217 10.1159 47.9041 10.0303 47.5986C8.88887 48.1896 7.72625 48.4136 6.60145 48.2411C6.63302 48.3423 6.65775 48.4466 6.70371 48.5426C6.98255 49.1236 7.51535 49.6107 8.2048 49.9084H8.20509ZM6.18211 52.7593C6.08029 52.7593 5.94938 52.7928 5.80713 52.8481C5.73161 52.8773 5.65806 52.9113 5.58691 52.9499C5.44 53.0289 5.29978 53.1227 5.18836 53.2245C5.13353 53.274 5.08655 53.3253 5.04916 53.3748C5.43942 53.5111 6.40044 53.9047 6.70356 54.5627C7.51447 54.4015 7.86385 53.7612 7.96247 53.5369C7.66502 53.2402 7.26327 53.0289 6.8928 52.9004C6.80044 52.8713 6.712 52.8431 6.62953 52.8233C6.54604 52.8015 6.46589 52.787 6.39098 52.7761C6.32177 52.7658 6.25194 52.7601 6.18196 52.7592L6.18211 52.7593ZM30.7232 9.97927C30.6979 10.0161 30.6883 10.0491 30.6684 10.0821C30.7084 10.0871 30.7463 10.0885 30.7871 10.094C31.4164 10.179 32.1008 10.3985 32.7002 10.8076C33.1809 11.1356 33.5264 11.4095 33.7952 11.7129C34.0672 12.0193 34.2563 12.3515 34.4231 12.7931L34.4272 12.8037C34.5087 13.0228 34.5581 13.2376 34.607 13.4487C36.639 13.5369 36.8593 12.0226 36.878 11.5924C36.2234 11.4527 35.7267 11.3193 35.2977 11.0542C34.841 10.7705 34.4721 10.3425 34.0852 9.60836C33.9412 9.33738 33.5732 8.86684 33.1919 8.51426V8.51527C33.1174 8.44604 33.0431 8.38436 32.9722 8.32764H32.9716C32.8992 8.27135 32.8294 8.22291 32.7651 8.18436H32.7636L32.7622 8.18335C32.5062 8.03309 32.2323 7.91367 31.937 7.83862C31.68 7.77287 31.4036 7.74931 31.1114 7.76007C31.1248 7.90844 31.1405 8.04807 31.1424 8.22218C31.1449 9.38945 30.8983 9.73607 30.7235 9.98116L30.7232 9.97927ZM7.43273 61.4571C7.34182 61.3393 7.23898 61.2524 7.13818 61.2031C7.07782 61.1736 7.02036 61.1576 6.96945 61.1576C6.87956 61.1576 6.76044 61.2081 6.63491 61.2958C6.53207 61.3685 6.42793 61.4639 6.33207 61.5784C6.23034 61.6997 6.14522 61.8339 6.07898 61.9777H6.07855C5.98807 62.1745 5.93135 62.3969 5.93164 62.6308C5.93207 62.9531 6.02182 63.1714 6.09367 63.293C6.31273 63.0952 6.8128 62.7548 7.60291 62.8188C7.61572 62.7928 7.62709 62.7661 7.63695 62.7388C7.65076 62.6996 7.66313 62.6559 7.67331 62.6104C7.67767 62.5896 7.68233 62.565 7.68713 62.5384C7.70011 62.4584 7.70677 62.3774 7.70705 62.2964C7.7068 62.1651 7.68934 62.0344 7.65513 61.9077C7.60626 61.731 7.52713 61.5787 7.43404 61.4571H7.43273ZM15.7841 62.3793C15.4623 62.3803 15.2096 62.484 15.0246 62.6343C14.8556 62.7719 14.7307 62.956 14.6653 63.1639H14.6647C14.6521 63.2063 14.6426 63.2496 14.6362 63.2935C15.3708 63.58 15.5401 64.173 15.5751 64.508C16.575 63.9305 16.3213 62.741 16.2369 62.4386C16.0729 62.3972 15.9216 62.3783 15.7839 62.3793H15.7841ZM20.6749 14.6292C20.6609 14.6204 20.6724 14.6292 20.6793 14.635C20.6816 14.6341 20.6812 14.6321 20.6756 14.6292H20.6748H20.6749ZM19.9306 15.5726C20.0877 15.6689 20.1903 15.7292 20.2934 15.7687C20.3967 15.8094 20.511 15.835 20.6982 15.8676C20.7441 15.8754 20.793 15.8862 20.8407 15.8956C20.816 15.8491 20.7772 15.8072 20.7578 15.7577C20.696 15.6007 20.663 15.4267 20.6615 15.2152L20.6605 15.0948L20.6506 14.6715C20.6496 14.654 20.656 14.6459 20.6634 14.6409C20.3231 14.6468 20.2716 14.6754 20.2381 14.7428H20.2375L20.1983 14.8217V14.8228C20.0259 15.1675 20.1761 14.8712 20.1993 14.8268L20.2001 14.8239L20.2012 14.8229L20.1993 14.827C20.1705 14.8881 20.1098 15.0156 20.0495 15.1708C19.9996 15.2977 19.9596 15.4395 19.9308 15.5726H19.9306ZM12.4262 19.2206C12.4148 19.7375 12.512 21.4674 14.1745 21.2795C14.0608 20.75 14.1537 20.0969 14.1542 20.094L14.1702 19.9687H14.2967C14.2977 19.9687 14.5408 19.9767 15.1309 19.9707C16.7658 19.9557 17.9174 19.8631 18.7799 19.7089C19.6319 19.5567 20.1961 19.3441 20.6675 19.0863C21.4035 18.684 22.266 18.2344 22.8028 17.9992C22.8388 17.9832 22.8653 17.9745 22.8991 17.9602C22.607 17.8619 22.2493 17.772 21.9073 17.7028C21.7895 17.6789 21.6712 17.6571 21.5526 17.6375C21.4486 17.6199 21.3443 17.6041 21.2397 17.59C21.0979 17.5721 20.9812 17.5624 20.9047 17.5624C20.6726 17.563 20.3103 17.594 19.9011 17.6351L19.9081 17.6436L19.9056 17.6456C19.7329 17.7849 19.5257 17.9212 19.2863 18.0517C19.0492 18.1823 18.7823 18.3048 18.4897 18.4197C17.0202 18.9947 14.8563 19.3673 12.4276 19.2197L12.4262 19.2206ZM10.2521 28.486C10.7175 28.7751 11.3555 28.9268 12.2256 28.9362L12.4237 28.8504C13.5379 28.3707 14.8218 27.8177 15.6234 27.3372C15.1063 27.1736 14.6688 26.823 14.3965 26.354C14.3258 26.2298 14.2689 26.0983 14.2269 25.9617C14.1929 25.85 14.1779 25.7324 14.1665 25.614L13.4679 25.7077C12.6659 26.1852 11.9168 26.6041 11.2148 26.9048C10.57 27.1815 9.96218 27.3519 9.38124 27.387C9.56946 27.8575 9.84175 28.23 10.2518 28.486H10.2521ZM23.0496 26.8434C23.5636 26.4196 25.418 24.9983 27.2058 24.9953C28.0125 24.9934 29.1021 25.3057 30.2182 26.1182C30.4489 26.285 30.6817 26.4757 30.9139 26.6884C31.1559 26.9116 31.3855 27.1478 31.6017 27.396C31.7106 27.5211 31.8163 27.6489 31.9188 27.7793C32.5254 28.2855 33.0509 28.5928 33.5567 28.7716C34.0639 28.9513 34.5552 29.0047 35.0903 29.0037C37.0831 28.9988 37.8996 27.0578 38.1278 26.3611L38.0559 26.379C37.9789 26.3961 37.9018 26.4123 37.8244 26.4274C37.4502 26.4984 36.9785 26.5518 36.4967 26.5528C36.4007 26.5538 36.3055 26.5518 36.2121 26.5479C35.9873 26.5391 35.7604 26.5191 35.5353 26.4875C35.3078 26.4549 35.08 26.4085 34.8545 26.3493C33.7555 26.0584 32.7015 25.4233 31.9583 24.2591C31.9372 24.2257 31.9069 24.1893 31.87 24.1495V24.1484C31.7795 24.0516 31.6484 23.9458 31.4865 23.8361C31.3204 23.7224 31.1248 23.6069 30.9091 23.4939C29.8502 22.9385 28.2953 22.4207 27.2655 22.4228C26.3055 22.4248 25.2512 22.6133 25.1316 22.6351C24.2032 23.0674 23.6774 23.4751 23.3724 23.9159C23.0695 24.3547 22.9772 24.8401 22.9156 25.4251C22.8575 25.9874 22.9092 26.4233 23.0044 26.7217C23.0178 26.7627 23.0328 26.8032 23.0493 26.8431L23.0496 26.8434ZM16.0983 27.131C16.2496 27.1335 16.4009 27.1315 16.552 27.125C16.7093 27.1191 16.8664 27.1079 17.023 27.0916C17.839 27.0094 18.7273 26.7941 19.6432 26.3919L19.6567 26.387L20.4272 26.0361C21.2953 25.635 22.0672 25.29 22.6468 25.2786C22.7137 24.7038 22.8204 24.2129 23.1376 23.7543C23.4096 23.3604 23.8457 22.9957 24.522 22.6267C23.9875 22.6232 23.1548 22.646 22.4279 22.7908C21.662 22.9439 21.2217 23.1922 20.8129 23.422C20.3951 23.658 20.0065 23.8759 19.3609 23.9697C19.2745 24.0856 19.0852 24.2053 18.8404 24.3224C18.6097 24.4322 18.3207 24.5447 18.024 24.6514C16.1583 25.3214 15.3459 25.4401 14.7392 25.5282L14.5475 25.5567L14.4477 25.5721C14.4564 25.6769 14.4713 25.7807 14.5011 25.8776C14.536 25.9932 14.5855 26.106 14.6458 26.2116C14.9517 26.7471 15.536 27.1177 16.0713 27.1288L16.0983 27.1297V27.131ZM19.1485 17.8015C19.2103 17.7681 19.2513 17.7317 19.3085 17.6968L19.2323 17.7047L17.4758 17.8658C17.4169 17.8687 17.367 17.8687 17.3111 17.8709V17.8728C17.3072 17.8728 17.3018 17.8713 17.2966 17.8713L17.0716 17.8777C15.7418 17.8807 14.64 17.5199 14.2327 17.3678C14.1862 17.6892 14.1843 17.9685 14.2477 18.2107C14.3187 18.4846 14.4775 18.7159 14.7524 18.9164C16.1799 18.8073 17.4317 18.5237 18.382 18.1534C18.6666 18.0428 18.922 17.9243 19.1468 17.8014L19.1485 17.8015ZM45.1805 9.88764C45.1121 9.89187 45.044 9.89949 44.9764 9.91047C44.8989 9.92211 44.8233 9.94 44.751 9.96182C44.684 9.98259 44.619 10.0094 44.5568 10.0418C44.2935 10.1812 44.1255 10.4345 44.1265 10.8473C44.1265 10.9371 44.1347 11.0281 44.1521 11.115C44.1625 11.1694 44.177 11.2229 44.1956 11.2751C44.2137 11.3265 44.2349 11.3749 44.2593 11.4184C44.3582 11.5964 44.5168 11.7278 44.739 11.7723L44.7446 11.7732H44.745C44.826 11.7877 44.9353 11.8008 45.0643 11.8107C45.201 11.8209 45.3523 11.8267 45.5116 11.8303C46.3549 11.8503 47.5159 11.8027 47.9654 11.7643C48.0406 11.7585 48.1065 11.7308 48.1654 11.6881C48.2282 11.6427 48.2836 11.5804 48.3312 11.5073C48.3815 11.4302 48.4231 11.3432 48.4551 11.2553C48.5214 11.0735 48.5511 10.8856 48.5505 10.7572C48.5505 10.6763 48.5401 10.5921 48.5204 10.5081C48.4864 10.3639 48.424 10.2245 48.3369 10.1089C48.2529 9.99833 48.1457 9.90931 48.0198 9.86087C47.9452 9.83237 47.866 9.81825 47.7862 9.81927L46.4579 9.84211L45.1808 9.88764H45.1805ZM0.787637 12.4747C1.35927 12.5172 1.83273 12.7851 2.1568 13.2558C2.34153 13.1273 2.69731 12.7685 2.51709 11.981C2.31287 11.8681 1.53818 11.4807 0.934838 11.7192H0.934256C0.494547 11.8937 0.316801 12.2681 0.248001 12.5C0.305146 12.4905 0.362645 12.4832 0.420365 12.4782C0.54256 12.4682 0.665339 12.4675 0.787637 12.4761V12.4747ZM49.4019 12.3196C49.2492 12.2228 49.0906 12.1436 48.9296 12.0844C48.7705 12.0251 48.6108 11.9855 48.4554 11.9678H48.455C48.3975 11.962 48.3427 11.9579 48.2924 11.9569L48.2928 11.9351C48.2023 11.9929 48.1037 12.0388 47.99 12.0485H47.9894C47.5382 12.0871 46.3642 12.1355 45.5053 12.1148C45.3329 12.1109 45.1763 12.1049 45.0442 12.0949C44.9046 12.0853 44.7843 12.0713 44.6915 12.0536L44.6851 12.0524H44.6836C44.5347 12.024 44.3947 11.9606 44.2752 11.8673L44.2726 11.8677C44.1932 11.8779 44.1126 11.8916 44.033 11.9102C43.9508 11.929 43.8697 11.9528 43.7904 11.9815C43.3744 12.1269 42.9677 12.3937 42.6588 12.7572L42.6577 12.7582C42.3287 13.1445 42.1261 13.5736 42.0065 14.1221C41.8833 14.6844 41.8454 15.3692 41.848 16.2559C41.849 16.8558 41.9876 17.4773 42.2844 18.1227C42.5834 18.7739 43.0425 19.4488 43.6813 20.1474C44.3133 20.8393 44.7523 21.3751 45.0349 21.869C45.3258 22.3761 45.4509 22.8383 45.4518 23.3752C45.4532 24.0786 45.1434 24.6401 44.9289 24.9435C45.435 24.9159 45.8401 24.8024 46.1628 24.6391C46.3048 24.5669 46.439 24.4801 46.563 24.3801C47.1594 23.8969 47.3369 23.2238 47.355 22.8572C47.3852 22.2484 47.3376 21.7465 47.2324 21.3067C47.1277 20.8679 46.9658 20.4903 46.7664 20.1307H46.7655C46.6928 20.0012 46.6167 19.8747 46.5366 19.7519C46.4092 19.5556 46.2806 19.3737 46.1566 19.1988H46.1562C45.7623 18.6424 45.4071 18.1393 45.4061 17.6788H45.6921C45.6926 18.0475 46.0237 18.5159 46.3903 19.0338H46.3898L46.7767 19.5961C46.8617 19.7275 46.9433 19.8601 47.0167 19.9932H47.0163C47.2268 20.3739 47.3991 20.7752 47.5102 21.2405C47.6164 21.6862 47.663 22.1957 47.6394 22.7961C47.7204 22.7778 47.8045 22.7627 47.8765 22.7329C48.0026 22.6814 48.1165 22.6132 48.2195 22.5332C48.3227 22.4514 48.4164 22.3583 48.4986 22.2555C48.8806 21.7803 49.0382 21.1308 49.0372 20.7089C49.0369 20.6324 49.0338 20.5559 49.0278 20.4796C48.9398 19.2622 48.1932 18.18 47.6057 17.3291C47.2508 16.8142 46.9511 16.3803 46.87 16.0248L47.1495 15.9623C47.2183 16.2636 47.503 16.6769 47.8413 17.166C48.3658 17.926 49.011 18.8649 49.2382 19.9413C50.1277 19.2791 49.9939 18.0703 49.9124 17.3964V17.3944C49.81 17.1729 49.4286 16.3694 49.095 15.9791C49.0348 15.9089 48.9731 15.8439 48.9117 15.7796C48.5946 15.4465 48.2961 15.1332 48.0826 14.0053L48.3642 13.9532C48.562 14.9967 48.8323 15.2804 49.1191 15.5819C49.1855 15.6502 49.2499 15.7204 49.3123 15.7924C49.6099 16.1403 49.9366 16.7815 50.0985 17.1186C50.3046 16.8251 50.4633 16.5346 50.5741 16.2063C50.7104 15.8052 50.7777 15.3481 50.7767 14.7615C50.7742 13.6913 50.1556 12.7947 49.4016 12.3193L49.4019 12.3196ZM2.04131 32.6869C2.04131 32.5781 2.01746 32.4164 1.9904 32.2658C1.97529 32.1816 1.9588 32.0976 1.94095 32.0139C1.52495 31.9999 -0.00159874 32.0434 1.2568e-06 33.4783C0.214256 33.3736 0.438692 33.3035 0.700219 33.2747C1.02226 33.2402 1.39782 33.2708 1.87622 33.3794C1.9344 33.3111 2.04233 33.1255 2.04131 32.6866V32.6869ZM3.09178 37.0687L3.09033 37.0668H3.08975C3.06695 37.0298 3.04194 36.9941 3.01484 36.9601C2.98799 36.9262 2.95965 36.8935 2.92989 36.8622L2.92931 36.8612C2.7984 36.723 2.65324 36.6183 2.54342 36.5726C2.37324 36.6439 1.79927 36.9057 1.57978 37.2657L1.57891 37.2665L1.57789 37.2686C1.54418 37.3251 1.51663 37.385 1.49571 37.4473C1.47389 37.5128 1.45789 37.5817 1.44727 37.6549V37.6559C1.40146 37.9692 1.45716 38.3279 1.58662 38.6255C1.80044 38.4011 2.272 38.0583 3.18473 38.0197C3.19666 37.7756 3.20684 37.2537 3.09164 37.0689L3.09178 37.0687ZM19.8961 12.1186C19.8787 12.2268 19.8753 12.3444 19.9172 12.5064C19.974 12.7225 20.1071 13.0188 20.3274 13.4228C20.4737 13.3983 20.5558 13.3624 20.6285 13.3239C20.6451 13.3151 20.6644 13.3064 20.6817 13.2977L20.6927 13.146C20.72 12.7428 20.7475 12.3969 20.8687 12.1004C20.8439 12.1033 20.8169 12.1054 20.7927 12.1083C20.6583 12.1252 20.5199 12.1432 20.2956 12.1441C20.1519 12.1441 20.0202 12.1346 19.8963 12.1188L19.8961 12.1186ZM34.9818 14.9073C34.5745 14.572 34.4688 14.1058 34.3526 13.6007C34.2998 13.3714 34.2444 13.1332 34.1594 12.9025L34.1555 12.8926C34.0013 12.4834 33.8275 12.179 33.5807 11.9013C33.3312 11.6197 33.0017 11.3598 32.5386 11.0434C31.9792 10.6609 31.3386 10.4564 30.7484 10.3765C30.6326 10.362 30.5185 10.3499 30.4074 10.3431C30.3376 10.3396 30.2733 10.3401 30.2077 10.3396L30.2343 10.8392C30.2591 11.4705 30.2842 12.114 30.5201 12.3995C30.6624 12.5705 30.8442 12.7 31.0783 12.7889C31.3226 12.882 31.6243 12.9323 31.9975 12.942L32.1788 12.9479L32.1319 13.1227C32.1309 13.1256 31.9753 13.6914 31.5021 14.1787C32.089 14.4027 32.5843 14.6783 33.0038 15.0875C33.4608 15.5311 33.8401 16.1192 34.1985 16.9304C34.2599 17.0693 34.3277 17.187 34.3935 17.31C36.5859 17.154 36.8833 15.7515 36.9175 15.2812C36.1025 15.3631 35.5692 15.3899 34.982 14.906L34.9818 14.9073ZM22.3713 22.5087C23.5146 22.2804 24.9148 22.3455 25.0742 22.3545C25.2191 22.3281 26.2902 22.1384 27.2653 22.1364C28.3405 22.1335 29.951 22.667 31.0413 23.2404C31.2697 23.3601 31.4751 23.4804 31.6476 23.5982C31.7293 23.6533 31.8086 23.712 31.8852 23.774C31.6106 22.5861 30.2627 21.3823 28.8656 20.6926C28.5488 20.5365 28.2285 20.4071 27.9184 20.31C27.6111 20.214 27.3133 20.1519 27.0384 20.1282C26.9569 20.1207 26.8751 20.1167 26.7933 20.1163C25.6769 20.1192 24.0515 20.3764 22.5028 20.7468L21.5617 20.9889C21.2509 21.0747 20.9527 21.163 20.6724 21.2519V21.2529L20.3437 21.3593C19.8756 21.5164 19.4564 21.6075 19.0099 21.6569C18.5696 21.7052 18.1017 21.7132 17.534 21.7064L16.2458 21.7013C16.3031 22.0798 16.4247 22.3636 16.5897 22.5918C16.7785 22.8517 17.0279 23.0456 17.3047 23.2283L17.4999 23.3617C17.8228 23.5857 18.033 23.7321 18.6413 23.7311C19.682 23.7291 20.154 23.4632 20.6723 23.1707C21.1007 22.9297 21.561 22.6697 22.3709 22.5089L22.3713 22.5087ZM33.9361 17.0475C33.5933 16.2708 33.2336 15.7113 32.8041 15.2933C32.3827 14.8836 31.8877 14.6075 31.2743 14.3905C30.9005 14.6809 30.3824 14.9 29.6573 14.8635C29.7267 15.1983 30.0541 15.9515 31.602 15.8665L31.7664 15.8578L31.7526 16.0219C31.7526 16.0238 31.6751 16.9237 30.9817 17.5783C30.8967 17.6574 30.8088 17.7334 30.7183 17.8062C30.7825 17.8149 30.8401 17.8047 30.9073 17.8213C31.0964 17.8679 31.2937 17.9439 31.4967 18.0446C32.5193 18.5516 33.6848 19.702 34.1382 20.7852C34.2473 21.0462 34.3503 21.2696 34.4532 21.4636C34.7641 21.4805 35.8234 21.4844 36.7175 20.8088C37.3539 20.3285 37.4641 19.6408 37.4812 19.3499C36.7187 19.3668 36.0513 19.2491 35.4721 18.917C34.8544 18.5633 34.3443 17.9713 33.9361 17.0473V17.0475ZM23.3261 18.114C23.297 18.1179 23.2461 18.1314 23.1807 18.1554C23.1097 18.1801 23.0201 18.2168 22.9168 18.2622C22.3876 18.4935 21.5332 18.939 20.8039 19.3385C20.3065 19.6101 19.7153 19.8337 18.8304 19.9916C17.9571 20.1477 16.7905 20.2418 15.1334 20.2564H14.4247C14.3959 20.5516 14.3524 21.2833 14.601 21.5736C14.6796 21.6655 14.7453 21.7564 14.809 21.8436C14.9215 21.9977 15.0282 22.1439 15.1741 22.2527L15.1756 22.2537C15.2041 22.2756 15.2406 22.2962 15.2823 22.316C15.3263 22.3368 15.3792 22.3585 15.438 22.3783C15.682 22.4615 15.9904 22.5089 16.2118 22.4825C16.0819 22.2319 15.9782 21.9484 15.9417 21.572L15.9263 21.4149H16.0844C16.0858 21.4149 16.6054 21.4071 17.5377 21.4199C18.0916 21.4279 18.5481 21.4199 18.9792 21.3724C19.4058 21.3252 19.8065 21.2382 20.2538 21.0879L20.5862 20.9793H20.5868C20.8783 20.8871 21.1802 20.7972 21.4861 20.7134C21.8016 20.6268 22.1186 20.5453 22.4368 20.4692C24.0044 20.0939 25.6547 19.8338 26.7936 19.8306C26.8845 19.8306 26.9748 19.8345 27.063 19.8415C27.359 19.8671 27.6765 19.9343 28.0038 20.0361C28.1495 20.0817 28.3008 20.1576 28.4495 20.2165C28.2577 19.9111 27.8527 19.6953 27.8511 19.6929L27.8092 19.669L27.7888 19.6236C27.3641 18.6414 26.4586 18.3436 25.9105 18.1647C25.7382 18.1083 25.6071 18.0594 25.5105 18.0021L24.5498 18.0491L23.3289 18.1124V18.1113L23.3264 18.1124L23.3261 18.114ZM4.20611 29.1223C4.41411 29.1332 5.07156 29.1074 5.23636 28.3445C5.008 28.0984 3.93135 27.0616 2.76727 27.9957C3.13498 28.1339 3.41266 28.2971 3.63418 28.4769C3.88146 28.6776 4.05556 28.8958 4.20582 29.1223H4.20611ZM36.2759 22.8633C36.1647 22.8564 36.0589 22.8473 35.962 22.8367C35.8652 22.8261 35.7718 22.8111 35.686 22.7943H35.6845L35.6377 22.7844L35.6362 22.7833C35.186 22.6815 34.8644 22.4958 34.591 22.1845C34.3263 21.883 34.1139 21.4681 33.8739 20.8958V20.8948C33.4458 19.8719 32.3408 18.7828 31.3709 18.3017C31.1856 18.2095 31.0067 18.1406 30.8393 18.0991C30.6787 18.0596 30.5299 18.0446 30.4004 18.0613L30.3961 18.0623L30.3903 18.0169C30.3219 18.0539 30.2663 18.098 30.1862 18.1297C29.9183 18.2344 29.5776 18.2999 29.0967 18.3095C29.632 18.7817 30.5847 19.8501 30.2842 21.2396C31.3543 22.0513 32.1872 23.1095 32.2212 24.1374C32.322 24.2926 32.4404 24.4164 32.5529 24.5519C33.3844 24.7945 34.1577 24.9527 34.8412 24.9516C35.5171 24.9508 36.1071 24.7945 36.582 24.4091C37.2768 23.8447 37.4848 23.1559 37.5466 22.8309C37.2172 22.8775 36.7165 22.8903 36.2768 22.8635L36.2759 22.8633ZM7.8928 26.8194C8.02807 26.8956 8.1808 26.9598 8.35215 27.0092C8.52625 27.0587 8.71898 27.0921 8.93178 27.1071C9.0128 27.1121 9.09396 27.115 9.17469 27.115C9.77309 27.1141 10.414 26.9352 11.1034 26.6408C11.7398 26.3676 12.4221 25.9883 13.1431 25.5636C12.1543 24.9934 12.017 24.2119 12.03 23.8076C11.5699 23.9944 11.1177 24.2265 10.7201 24.4401C10.3308 24.6495 9.98909 24.8324 9.72334 24.9204V24.9193L9.72131 24.9204C8.62415 25.2828 7.35404 25.4321 6.91084 25.4757C7.02647 25.9303 7.30065 26.4878 7.89265 26.8197L7.8928 26.8194ZM3.57207 17.748C3.23855 18.0089 2.65106 18.1204 2.11404 18.1305C2.00856 18.1328 1.90303 18.1311 1.79767 18.1255L1.75666 18.1236C2.43229 19.3975 3.72727 19.092 4.06589 18.9864C4.14982 17.9643 3.72146 17.7791 3.57222 17.748H3.57207ZM10.6431 22.3415C10.2911 22.628 9.91476 22.804 9.54705 22.9116C9.18342 23.0203 8.82967 23.0619 8.51782 23.0804C8.1664 23.1022 7.66109 23.0983 7.40567 23.0943C7.45047 23.458 7.68931 24.4081 8.92102 24.8463C9.16015 24.7881 9.4 24.7244 9.63229 24.6476H9.63375V24.6468C9.87782 24.5668 10.2079 24.3897 10.585 24.1874C11.033 23.9467 11.5472 23.6754 12.0759 23.4747L12.0913 23.4136L12.1641 23.4264C12.3034 23.3239 12.4489 23.2302 12.5999 23.1458C12.7904 23.037 13.009 22.9253 13.2362 22.8185C13.4631 22.7128 13.6973 22.613 13.9191 22.5271C14.2406 22.4041 14.5396 22.31 14.774 22.2638C14.7047 22.1838 14.6426 22.0987 14.5791 22.0113C14.5177 21.9273 14.4544 21.8411 14.3849 21.7592H14.3843C14.3373 21.7044 14.2999 21.6377 14.2673 21.566C13.542 21.6689 13.058 21.4788 12.742 21.1593C12.6935 21.1729 12.646 21.1855 12.5828 21.2098C12.4919 21.2453 12.3905 21.2898 12.2828 21.3412C11.7194 21.6117 10.9799 22.0684 10.6438 22.3413L10.6431 22.3415ZM14.8031 22.884C14.9898 22.7938 15.1644 22.7112 15.3267 22.642C15.2679 22.6212 15.2108 22.5983 15.1588 22.5736C15.1094 22.55 15.0689 22.5247 15.0314 22.4994V22.5163C14.8317 22.5173 14.4481 22.63 14.022 22.7941C13.7971 22.8814 13.5752 22.9763 13.3568 23.0788C13.1471 23.1758 12.9413 23.2813 12.7401 23.3948C12.6892 23.4236 12.6463 23.4513 12.5997 23.4798C12.704 23.4882 12.8147 23.4952 12.9273 23.4946C13.546 23.4937 14.2276 23.1636 14.8031 22.8837V22.884ZM13.454 25.4207C13.5267 25.4139 13.7629 25.3873 14.503 25.2724V25.2713L14.6972 25.2428H14.6982C15.2931 25.157 16.0902 25.0402 17.9273 24.381C18.2103 24.2782 18.4896 24.1695 18.7164 24.0607C18.7535 24.0433 18.7777 24.0273 18.8109 24.0104C18.7542 24.0123 18.7018 24.0162 18.6413 24.0162C17.9421 24.0183 17.7031 23.8521 17.336 23.5963L17.1469 23.4668C16.8454 23.2673 16.5709 23.0537 16.3583 22.7595C16.3553 22.7554 16.3539 22.7496 16.351 22.7455C16.2452 22.7694 16.1235 22.7778 15.9907 22.7703L15.9903 22.7732C15.9743 22.7692 15.9535 22.7703 15.9338 22.7692C15.926 22.7687 15.9187 22.7687 15.9105 22.7678C15.9071 22.7682 15.9047 22.7672 15.9007 22.7672H15.9001C15.6764 22.7791 15.3276 22.948 14.9277 23.1419C14.3258 23.4334 13.6134 23.7793 12.9274 23.7813C12.7023 23.7813 12.4649 23.7575 12.3177 23.7388C12.2889 24.0511 12.3325 24.8753 13.4541 25.4207H13.454Z" fill="#221F20"/>
</g>
</svg>
